<?xml version="1.0" encoding="utf-8"?>
<!-- Generator: Adobe Illustrator 26.0.2, SVG Export Plug-In . SVG Version: 6.00 Build 0)  -->
<svg version="1.1" id="Слой_1" xmlns="http://www.w3.org/2000/svg" xmlns:xlink="http://www.w3.org/1999/xlink" x="0px" y="0px"
	 viewBox="0 0 1003.5 357.2" style="enable-background:new 0 0 1003.5 357.2;" xml:space="preserve">
<style type="text/css">
	.st0{fill:#FFFFFF;}
</style>
<path d="M974.8,239.3v23.1h-15.1v-23.3l-25.3-42h16l17.4,29l17.4-29h14.8L974.8,239.3z"/>
<path d="M900.5,209.5h-20.9v-12.3h56.9v12.3h-20.9v53h-15.1V209.5z"/>
<path d="M856.3,197.2h15.1v65.3h-15.1V197.2z"/>
<path d="M818.3,263.6c-5.2,0-10.2-0.7-15-2.1c-4.8-1.4-8.6-3.3-11.6-5.5l5.1-11.4c2.8,2.1,6.1,3.7,10,4.9s7.7,1.9,11.6,1.9
	c4.3,0,7.5-0.6,9.5-1.9c2.1-1.3,3.1-3,3.1-5.1c0-1.6-0.6-2.8-1.9-3.8c-1.2-1.1-2.7-1.9-4.7-2.5c-1.9-0.6-4.4-1.3-7.7-2.1
	c-5-1.2-9-2.4-12.2-3.5c-3.2-1.2-5.9-3.1-8.2-5.7c-2.2-2.6-3.4-6.1-3.4-10.4c0-3.8,1-7.2,3.1-10.3c2.1-3.1,5.1-5.6,9.2-7.4
	c4.2-1.8,9.2-2.7,15.2-2.7c4.2,0,8.2,0.5,12.2,1.5c4,1,7.5,2.4,10.4,4.3l-4.7,11.5c-6-3.4-12.1-5.1-18.1-5.1c-4.2,0-7.4,0.7-9.4,2.1
	c-2,1.4-3,3.2-3,5.4s1.1,3.9,3.5,5c2.4,1.1,5.9,2.1,10.7,3.2c5,1.2,9,2.4,12.2,3.5c3.2,1.2,5.9,3,8.1,5.6c2.3,2.6,3.5,6,3.5,10.4
	c0,3.7-1.1,7.2-3.2,10.3c-2.1,3-5.2,5.5-9.3,7.3C829.3,262.7,824.3,263.6,818.3,263.6z"/>
<path d="M769.8,262.5l-12.6-18.2h-0.7h-13.2v18.2h-15.1v-65.3h28.3c5.8,0,10.8,1,15,2.9c4.3,1.9,7.6,4.7,9.9,8.2
	c2.3,3.5,3.5,7.7,3.5,12.6s-1.2,9-3.5,12.6c-2.3,3.5-5.6,6.2-9.9,8l14.6,21H769.8z M769.6,220.9c0-3.7-1.2-6.5-3.5-8.4
	c-2.4-2-5.8-3-10.4-3h-12.3v22.8h12.3c4.5,0,8-1,10.4-3C768.4,227.3,769.6,224.5,769.6,220.9z"/>
<path d="M716.2,250.3v12.1h-50.6v-65.3H715v12.1h-34.3v14.2H711v11.8h-30.3v15.1H716.2z"/>
<path d="M660.2,197.2l-28.3,65.3H617l-28.2-65.3h16.3l19.9,46.6l20.2-46.6H660.2z"/>
<path d="M567.2,197.2h15.1v65.3h-15.1V197.2z"/>
<path d="M551.7,197.2v65.3h-12.4l-32.6-39.6v39.6h-14.9v-65.3h12.5l32.5,39.6v-39.6H551.7z"/>
<path d="M447.3,263.6c-9.3,0-16.6-2.6-21.8-7.7c-5.2-5.2-7.7-12.5-7.7-22.1v-36.6h15.1v36c0,11.7,4.9,17.5,14.6,17.5
	c4.7,0,8.3-1.4,10.8-4.2c2.5-2.9,3.7-7.3,3.7-13.3v-36h14.9v36.6c0,9.6-2.6,16.9-7.8,22.1C463.9,261,456.6,263.6,447.3,263.6z"/>
<path d="M933.7,161.1c-5.2,0-10.2-0.7-15-2.1c-4.8-1.4-8.6-3.3-11.6-5.5l5.1-11.4c2.8,2.1,6.1,3.7,10,4.9s7.7,1.9,11.6,1.9
	c4.3,0,7.5-0.6,9.5-1.9c2.1-1.3,3.1-3,3.1-5.1c0-1.6-0.6-2.8-1.9-3.8c-1.2-1.1-2.7-1.9-4.7-2.5c-1.9-0.6-4.4-1.3-7.6-2.1
	c-5-1.2-9-2.4-12.2-3.5c-3.2-1.2-5.9-3.1-8.2-5.7c-2.2-2.6-3.4-6.1-3.4-10.4c0-3.8,1-7.2,3.1-10.3c2.1-3.1,5.1-5.6,9.2-7.4
	c4.2-1.8,9.2-2.7,15.2-2.7c4.2,0,8.2,0.5,12.2,1.5c4,1,7.5,2.4,10.4,4.3l-4.7,11.5c-6-3.4-12.1-5.1-18.1-5.1c-4.2,0-7.4,0.7-9.4,2.1
	c-2,1.4-3,3.2-3,5.4c0,2.2,1.2,3.9,3.5,5c2.4,1.1,5.9,2.1,10.7,3.2c5,1.2,9,2.4,12.2,3.5c3.2,1.2,5.9,3,8.1,5.6
	c2.3,2.5,3.5,6,3.5,10.4c0,3.7-1.1,7.2-3.2,10.3c-2.1,3-5.2,5.5-9.3,7.3C944.8,160.2,939.7,161.1,933.7,161.1z"/>
<path d="M881.7,94.7h15.1V160h-15.1V94.7z"/>
<path d="M825.3,94.7h15.1v53h32.7V160h-47.9V94.7z"/>
<path d="M778.3,161.1c-6.8,0-12.9-1.5-18.4-4.4c-5.4-2.9-9.7-6.9-12.8-12c-3-5.2-4.6-10.9-4.6-17.4c0-6.4,1.5-12.2,4.6-17.3
	c3.1-5.2,7.4-9.2,12.8-12.1c5.5-2.9,11.6-4.4,18.4-4.4c6.8,0,12.9,1.5,18.3,4.4c5.4,2.9,9.7,7,12.8,12.1c3.1,5.1,4.7,10.9,4.7,17.3
	c0,6.4-1.6,12.2-4.7,17.4c-3.1,5.1-7.4,9.1-12.8,12C791.1,159.7,785,161.1,778.3,161.1z M778.3,148.3c3.9,0,7.3-0.9,10.4-2.6
	c3.1-1.8,5.5-4.3,7.3-7.5c1.8-3.2,2.7-6.8,2.7-10.8c0-4-0.9-7.7-2.7-10.8c-1.7-3.2-4.2-5.6-7.3-7.4c-3.1-1.8-6.6-2.7-10.4-2.7
	c-3.9,0-7.3,0.9-10.4,2.7c-3.1,1.7-5.6,4.2-7.4,7.4c-1.7,3.2-2.6,6.8-2.6,10.8c0,4,0.9,7.6,2.6,10.8c1.8,3.2,4.3,5.7,7.4,7.5
	C770.9,147.4,774.4,148.3,778.3,148.3z"/>
<path d="M706.6,94.7c5.8,0,10.8,1,15,2.9c4.3,1.9,7.6,4.7,9.9,8.2c2.3,3.5,3.5,7.7,3.5,12.6c0,4.8-1.2,9-3.5,12.6
	c-2.3,3.5-5.6,6.3-9.9,8.2c-4.2,1.9-9.2,2.8-15,2.8h-13.2v18h-15.1V94.7H706.6z M705.7,129.7c4.5,0,8-1,10.4-2.9
	c2.4-2,3.5-4.8,3.5-8.4c0-3.7-1.2-6.5-3.5-8.4c-2.4-2-5.8-3-10.4-3h-12.3v22.7H705.7z"/>
<path d="M631.2,161.1c-6.8,0-12.9-1.5-18.4-4.4c-5.4-2.9-9.7-6.9-12.8-12c-3-5.2-4.6-10.9-4.6-17.4c0-6.4,1.5-12.2,4.6-17.3
	c3.1-5.2,7.4-9.2,12.8-12.1c5.5-2.9,11.6-4.4,18.4-4.4s12.9,1.5,18.3,4.4c5.4,2.9,9.7,7,12.8,12.1c3.1,5.1,4.7,10.9,4.7,17.3
	c0,6.4-1.6,12.2-4.7,17.4c-3.1,5.1-7.4,9.1-12.8,12C644.1,159.7,638,161.1,631.2,161.1z M631.2,148.3c3.9,0,7.3-0.9,10.4-2.6
	c3.1-1.8,5.5-4.3,7.3-7.5c1.8-3.2,2.7-6.8,2.7-10.8c0-4-0.9-7.7-2.7-10.8c-1.7-3.2-4.2-5.6-7.3-7.4c-3.1-1.8-6.6-2.7-10.4-2.7
	s-7.3,0.9-10.4,2.7c-3.1,1.7-5.6,4.2-7.4,7.4c-1.7,3.2-2.6,6.8-2.6,10.8c0,4,0.9,7.6,2.6,10.8c1.8,3.2,4.3,5.7,7.4,7.5
	C623.9,147.4,627.4,148.3,631.2,148.3z"/>
<path d="M584.1,94.7V160h-12.4l-32.6-39.6V160h-14.9V94.7h12.5l32.5,39.6V94.7H584.1z"/>
<path d="M508.8,94.7V160h-12.4l-32.6-39.6V160h-14.9V94.7h12.5l32.5,39.6V94.7H508.8z"/>
<path d="M418.3,94.7h15.1V160h-15.1V94.7z"/>
<path d="M176.3,353c96.6,0,175-78.4,175-175c0-96.6-78.4-175-175-175C79.7,3,1.3,81.3,1.3,178C1.3,274.6,79.7,353,176.3,353z"/>
<path class="st0" d="M177.4,12.2c91.8,0,166.4,74.5,166.4,166.4c0,91.8-74.5,166.4-166.4,166.4c-91.8,0-166.4-74.5-166.4-166.4
	C11.1,86.8,85.6,12.2,177.4,12.2z M96.1,316.9c23.9,14,51.7,22.2,81.3,22.2V339h8.9L96.1,316.9z M72.8,300.3
	c6.2,5.1,12.4,9.7,18.9,14l99.4,24.3c9.1-0.6,17.7-2.3,25.9-4.5L72.8,300.3z M58.4,286.5c3.9,4.3,7.8,8.2,12.1,11.9l149.9,35
	c6.4-1.9,12.6-3.9,18.5-6.4L58.4,286.5z M49.4,275.3c2.5,3.1,4.7,6.2,7.4,9.1l184.7,41.4c6.2-2.7,12.4-5.8,18.1-9.3L49.4,275.3z
	 M40.5,262.4c1.9,3.1,4.1,6.2,6.2,9.3l216.6,42.6l-0.4-0.2c21.6-13.6,39.7-32.3,52.9-54.6l-31.7,1.9l-6.6-0.4l-0.4-0.4h-9.7
	l-56.8-3.5l-1.4-1.4v-3.7H104.3v25.3h-3.1v-25.3H67.5v17.9h-3.1v-17.9H40.5V262.4z M286.6,293.5l-0.2,1.4l-50.6-8.4l0.2-1.4
	L286.6,293.5z M210.8,281l-0.2,1.4l-45.7-7.6l0.2-1.4L210.8,281z M142.4,269.8l-0.2,1.4l-36-6l0.2-1.4L142.4,269.8z M285.9,258.5
	l6-0.4v-53.5l-6-2.9V258.5z M279.1,201.4v56.8h3.5v-57.4L279.1,201.4z M219.2,157.4l65.9,40.8l8.9,4.3l0.8,1.2v54.4l4.9-0.4v-55.6
	l-75.4-45.3l-0.4-2.1l20-38.3l2.1-0.6l90.6,41l0.2,0.6c-0.2-1-0.4-2.3-0.4-3.3l-92.6-42.4L219.2,157.4z M252.6,204.3v52.5l13.4,0.8
	v-54.8L252.6,204.3z M269.1,202.5v55.2h7v-56L269.1,202.5z M34.6,252.1c0.8,1.6,1.9,3.3,2.7,5.1v-5.1H34.6z M302,180.4l-1.6,18.5
	l1.9,1h-0.4l0.8,1.2v56l1-0.2h4.1l-2.5-41l3.1-31.7l-2.7-34.6l-1.6-0.8l-1-0.4l-3.7-1.9L302,180.4z M309.8,184.3l-3.1,31.7l2.5,41
	h1.4l1.2-0.2h3.9l-2.3-36.4l2.9-31.7l-2.7-35.4l-1.6-0.8l-1.2-0.4l-3.7-1.9L309.8,184.3z M237.6,220v36l13.6,0.8v-37.9L237.6,220z
	 M317.6,188.5l-2.9,31.7l2.3,36.4h1c0-0.4,0.4-0.6,0.4-1l1-2.3h0.2c1-2.1,2.1-3.9,3.1-6l-1.4-23.1l2.7-31.7l-2.5-35.8l-1.6-0.8
	l-1-0.4l-3.7-1.6L317.6,188.5z M224.6,220.6V255l11.5,0.6v-35.8L224.6,220.6z M212,209.5v44.9l10.9,0.6v-46.7L212,209.5z
	 M40.5,202.9v5.1l5.8-1.5l0.6,0.4v0.2l10.7,43.4H63l-13-50.4L40.5,202.9z M154.8,250.6h54.4v-41.6l-3.5-1.2v8.4l-0.8,0.8l-8-0.4h0.2
	l-0.8-0.8v-11.9l-37.1-14.2l-4.3-0.6V250.6z M33.9,214v36.4h3.3v-37.3L33.9,214z M40.5,212.6v37.9h15.9l-9.9-39.5L40.5,212.6z
	 M64.4,250.4v-48.4l-13-2L64.4,250.4z M70,195.9l13.2,54.6h4.7L76.6,201l0.4-1l24.2-6.7v-7L70,195.9z M89.5,250.4h1.2v-48.8H78.2
	L89.5,250.4z M92.4,201.4v49h8.9v-51.1L92.4,201.4z M109.1,197.5l-4.9,1v51.9h18.1l-13.2-53.1V197.5z M103.9,185.6v7l4.3-1l1,0.4
	h-0.2l14.4,58.5h7.4l-17.5-67.5L103.9,185.6z M132.6,250.4h20.6v-61.6h0.4l-38.3-6.2h-0.2L132.6,250.4z M67.3,250.2h14L70,202.9
	l-2.7-0.6V250.2z M29.8,241.8c1,2.3,2.1,4.5,3.1,6.8v-34.4h-9.5L29.8,241.8z M325.1,192.4l-2.7,31.7l1.2,21c1-1.9,1.9-3.9,2.7-6
	l1-2.7l0.2-0.2c0.6-1.6,1.4-3.3,1.4-4.9V228l2.7-31.7l-2.5-36.2l-1.6-0.8l-4.9-2.3L325.1,192.4z M180.3,222.2h8.9l0.8,1V235
	l-0.8,0.8h-8.9l-0.8-0.8v-12.1l0.8-0.8V222.2z M162.4,221.8h9.9l0.8,0.8v12.1l-0.8,0.8h-9.9l-0.8-0.8v-12.4l0.8-0.8V221.8z
	 M205.6,223.1v11.5l-0.8,0.8h-8l-0.8-0.8v-11.7l0.8-0.6h8L205.6,223.1z M19.5,209.1c1.6,8.6,4.1,17.3,7.2,25.5l-4.9-21l0.4-0.6
	l15-4.1v-5.1L19.5,209.1z M163.4,234h8.2v-10.7h-8.2V234z M180.9,234h7.4v-10.5h-7.4V234z M197.6,233.8h6.6v-10.1h-6.6V233.8z
	 M332.9,196.5l-2.7,31.7v0.4c1.4-4.5,2.9-9.1,3.9-13.8h-0.2l1-5.6c1.6-9.3,2.7-18.7,2.9-28.4l-1-17.1l-1.6-0.8l-1-0.6l-3.7-1.6
	L332.9,196.5z M224.4,207.8v11.5l11.5-0.8v-11.9L224.4,207.8z M237.6,206v12.1l13.6-1v-12.8L237.6,206z M189.2,201.6l0.8,0.8v13.2
	l-0.8,0.8l-8.9-0.4l-0.8-0.8v-13.8l0.8-0.8L189.2,201.6z M162.6,198.8l9.9,1.2l0.8,0.8v14.4l-0.8,0.8l-9.9-0.4l-0.8-0.8v-15.4
	l0.8-0.8V198.8z M197.6,215.2h6.6V207l-6.6-2.5V215.2z M180.9,214.8h7.4v-11.7l-7.4-0.8V214.8z M163.4,213.8l8.2,0.4V201l-8.2-1
	V213.8z M26.9,213h6.6l3.7-1v-1.9L26.9,213z M40.5,209.3v2l5.6-1.4l-0.4-2.1L40.5,209.3z M17.2,163.6c-0.5,4.9-0.5,10.1-0.5,15l0,0
	c0,9.9,1,19.8,2.7,29.2l17.9-5.4v-36.9L17.2,163.6z M137.5,178l73.3,28.4l69-8.2l-63-38.9L137.5,178z M67.3,201.4l2.7,0.4l-1.4-6.2
	l0.4-1l32.2-9.9v-12.5l-33.9-3.4V201.4z M40.5,201.4l9.7-2.9h0.4l-0.2,0.2l14,2.1v-32.5l-23.9-2.5V201.4z M82.7,200.2h8.4l10.1-2.3
	v-2.7L82.7,200.2z M294.4,176.1l-1.6,18.1l6.6,3.9l1.9-17.9l-2.7-34.2l-6.8-3.1L294.4,176.1z M104.1,194.2v2.7l4.5-1l-0.6-2.7
	L104.1,194.2z M286.6,172v0.2l-1.9,17.5l6.8,4.1l1.6-17.5l-2.7-33.8l-6.6-3.1L286.6,172z M278.7,167.8l-1.8,16.8l6.6,4.1l1.9-16.9
	l-2.9-33.1l-6.6-2.9L278.7,167.8z M177,18.2c-9.1,0-17.9,0.6-26.6,2.1l17.5,105h-1L149.2,20.5c-8,1.4-15.9,3.5-23.3,6l19.6,58.3
	l-1,0.4l-19.6-58.3c-21.2,7.4-40.6,18.9-56.6,33.8l27.6,30.1l-0.8,0.8L67.5,61.4c-10.3,9.5-19.6,20.4-27,32.5L84,121.3l-0.6,1
	L39.5,95c-4.1,7-7.8,14-10.9,21.4l27.6,11.7l-0.4,1l-27.6-11.7c-5.8,14.2-9.3,29-10.9,44.8l20,2.2v-23.4h3.4v3.5
	c1.9,0,3.1,0.6,4.1,1.2c1.2,0.8,2.1,1.2,3.5,0.8c1.4-0.2,1.9-1,2.7-2.1c1-1.2,2.1-2.9,4.7-3.3c2.1-0.4,3.5,0,4.3,0.4l1,1.4v12.8
	l-2.1,1.4c-0.6-0.4-1.4-0.4-2.5-0.4c-1.4,0.2-1.9,1-2.7,2.1c-1,1.2-2.1,2.9-4.7,3.3c-0.4,0,0.4,0-1.4,0c-1.9,0-3.1-0.6-4.1-1.2l0,0
	c-0.8-0.4-2.1-0.8-3.1-0.8v4.5l23.9,2.5v-41h2.9v5.8c2.8-0.2,4.7,0.8,6.3,1.9c1.9,0.8,3.3,1.6,6,1.2c2.7-0.4,3.7-1.9,4.9-3.5
	c1.2-1.9,2.9-3.9,6.6-4.7c2.3-0.4,4.1-0.4,6.2,0.6l1,1.4v19.8l-2.1,1.4c-1-0.4-2.3-0.8-4.3-0.4c-2.7,0.4-3.7,1.9-4.9,3.5
	c-1.2,1.9-2.9,3.9-6.6,4.7c-0.8,0,0.4,0-2.3,0c-2.7,0-4.3-1-6-2.1c-1.4-0.8-2.7-1.4-4.9-1.4v12.8l33.9,3.5v-77l2.8,0v5.1
	c3.9-0.6,7.2,1,9.9,2.7c2.9,1.9,5.6,3.3,10.1,2.3c4.5-1,6.4-3.3,8.4-6c2.1-2.9,4.5-6.2,10.3-7.2c4.3-1,7.2,0,9.3,1l1,1.4v31.5
	l-2.1,1.4c-1.6-0.8-3.9-1.4-7.4-0.8c-4.5,1-6.4,3.3-8.4,6c-2.1,2.9-4.5,6.2-10.3,7.2c-1.2,0.4,0.6,0.4-3.3,0.4
	c-3.9,0-6.4-1.6-8.9-2.9c-2.7-1.6-5.1-2.9-8.7-2.9v37.9l20.2,2.1v1.4l-20.2-2v11.3l9.5-2.9l38.3,6l-20.6-8l-0.6-2.3l31.3-41.2
	l0.6-0.4l79.3-27h1l92.2,42c-1.2-7.4-3.1-14.6-5.4-21.4l-16.1,5.4l-0.4-1l16.1-5.4c-7-21-18.5-40.4-33.1-56.6l-39.3,36l-0.8-0.8
	l39.3-36c-9.5-10.3-20.4-19.6-32.5-27.2l-38.5,62l-1-0.6l38.5-62c-6.8-4.1-13.8-7.8-21.2-11.1l-34.4,80.9l-1-0.4l34.4-80.9
	c-14.2-6-29.6-10.1-45.5-11.7l-10.1,98.8h-1L192.9,19C187.7,18.6,186.1,18.2,177,18.2z M270.9,163.7l-1.6,16.4l6.6,3.9l1.6-16.5
	l-2.9-32.5l-6.6-2.9L270.9,163.7z M176.2,180.2l-15.4,3.5l-0.2-1.6l15.2-3.3L176.2,180.2z M263.3,159.6l0.2-0.2l-1.6,15.9l6.6,4.1
	l1.6-15.9l-3.1-32.1l-6.6-2.7L263.3,159.6z M164.3,137.6l-28.4,37.5h0.2l79.9-18.7l23.3-43.4l0.4-0.4v-0.4L164.3,137.6z
	 M255.5,155.7l-1.4,15.4l6.4,3.9l1.6-15.2l-2.9-31.7l-6.8-3.1L255.5,155.7z M218.2,170.8l-18.7,4.1l-0.3-1.4l18.7-4.1L218.2,170.8z
	 M244.6,122.4l3.1,29.2h0.2l-1.4,14.6l6.6,4.1l1.4-14.6l-3.3-31.3l-6.2-2.7L244.6,122.4z M278.7,167.9l0-0.1l0-0.1V167.9z
	 M160.8,159l-3.9,5.1l-0.4,0.2l-6.4,1.9l-0.8-1l4.1-5.1l0.2-0.2l6.6-1.6L160.8,159z M238,134.7l1.4,13.2l-1.4,13.4l7.2,4.3l1.4-14
	l-2.9-27.6L238,134.7z M270.9,163.8l0-0.1l0-0.1V163.8z M173.9,159.6l-14.2,3.7l1.2-1.9l14-3.5L173.9,159.6z M245.4,120.1l91.8,42
	c0-0.6-0.4-1.2-0.4-1.9l-91-41.2L245.4,120.1z M132.4,160l-0.4,0.9l-23.1-9.8l0.4-0.9L132.4,160z M230.6,148.5v8.2l6.4,3.9l1.2-12.8
	l-1-11.3L230.6,148.5z M175.8,156.5l-14.2,3.5l1.2-1.6l14.2-3.7L175.8,156.5z M57.2,144.2c-1.4,0.2-1.9,1-2.7,2.1
	c-1,1.2-2.1,2.9-4.7,3.3c-2.7,0.6-4.3-0.2-5.6-1c-0.8-0.4-1.6-0.8-3.7-0.9v9.5c2.9,0.1,4.1,0.7,5.1,1.4c1.2,0.8,2.1,1.2,3.5,0.8
	c1.4-0.2,1.9-1,2.7-2.1c1-1.2,2.1-2.9,4.7-3.3h2.1v-9.7H57.2z M227.5,154.9l2.1,1.2v-5.4L227.5,154.9z M95.5,130
	c-0.8,0-2.1-0.4-3.5,0c-2.7,0.4-3.7,1.9-4.9,3.5c-1.2,1.9-2.9,3.9-6.6,4.7c-3.9,0.8-6.2-0.6-8.2-1.6c-1.4-0.8-2.7-1.4-4.9-1.4v16.7
	c3.1,0,4.9,0.8,6.6,1.9c1.9,0.8,3.3,1.6,6,1.2c2.7-0.4,3.7-1.9,4.9-3.5c1.2-1.9,2.9-3.9,6.6-4.7c1.4,0,2.9-0.4,4.1,0V130z
	 M138,153.9l-0.5,0.9l-23.6-14.7l0.5-0.9L138,153.9z M145.1,144l-0.8,0.7l-8.3-9.1l0.8-0.7L145.1,144z M150.5,94.4
	c-1.6-0.4-3.7-1-6.6-0.4c-4.5,1-6.4,3.3-8.4,6c-2.1,2.9-4.5,6.2-10.3,7.2c-5.6,1-9.1-0.8-12.1-2.7c-2.7-1.6-5.1-2.9-9.1-2.5v28.4
	v0.2c4.9-0.4,7.8,1.2,10.5,3.1c2.9,1.9,5.6,3.3,10.1,2.3c4.5-1,6.4-3.3,8.4-6c2.1-2.9,4.5-6.2,10.3-7.2c2.7-0.6,4.9-0.6,7.2,0V94.4z
	"/>
</svg>
